<?xml version="1.0" encoding="utf-8"?>
<!-- Generator: Adobe Illustrator 27.2.0, SVG Export Plug-In . SVG Version: 6.00 Build 0)  -->
<svg version="1.1" id="Calque_1" xmlns="http://www.w3.org/2000/svg" xmlns:xlink="http://www.w3.org/1999/xlink" x="0px" y="0px"
	 width="321.8321228px" height="95.9288483px" viewBox="0 0 321.8321228 95.9288483"
	 enable-background="new 0 0 321.8321228 95.9288483" xml:space="preserve">
<g>
	<rect fill-rule="evenodd" clip-rule="evenodd" fill="none" width="321.8321228" height="95.9288483"/>
	<g>
		<g>
			<g>
				<polygon fill-rule="evenodd" clip-rule="evenodd" fill="#E30613" points="57.5526466,38.3708076 57.5526466,19.1856937 
					38.3671036,19.1856937 38.3671036,38.3708076 19.1830864,38.3708076 19.1830864,57.5567245 38.3671036,57.5567245 
					38.3671036,76.7415161 57.5526466,76.7415161 57.5526466,57.5567245 76.7389908,57.5567245 76.7389908,38.3708076 				"/>
			</g>
		</g>
		<g>
			<path d="M166.9431763,42.2384377h3.8165131c0.1312866,0,0.2506714-0.0537338,0.3180237-0.1441078l5.8245697-7.4842186
				l5.793808,7.4833641c0.0682068,0.0912285,0.1867371,0.1449623,0.3180847,0.1449623h3.8165131
				c0.2378998,0,0.4382477-0.1155319,0.5234833-0.3014069c0.0818939-0.1795273,0.0401306-0.3918419-0.1116791-0.5678902
				l-7.7089233-9.5685482l0.0434723-0.0545902l7.5137024-9.3323574c0.1568756-0.1812344,0.1977844-0.3879948,0.1151123-0.5700245
				c-0.0853119-0.1863041-0.2865143-0.301836-0.5244141-0.301836h-3.8165131c-0.1312866,0-0.2498016,0.0537357-0.3171539,0.1441097
				l-5.6454926,7.2753181l-5.6744843-7.2740364c-0.0682068-0.0916557-0.1875763-0.1453915-0.3188629-0.1453915h-3.8165131
				c-0.237915,0-0.438324,0.1155319-0.5235596,0.301836c-0.0827484,0.1820297-0.0426178,0.3887901,0.1116791,0.567461
				l7.5605469,9.3895111l-0.0434723,0.0545292l-7.66539,9.514019c-0.1543732,0.1786118-0.195282,0.3853722-0.1126099,0.5674629
				C166.5049286,42.1229057,166.7052765,42.2384377,166.9431763,42.2384377z M113.8130875,37.5594673
				c-0.1151657-0.0737648-0.2669067-0.0784645-0.4110184-0.014534c-2.1435623,0.9750595-4.2624588,1.4695473-6.2969055,1.4695473
				c-4.4312973,0-7.1836624-2.7412491-7.1836624-7.1542282c0-4.4423523,2.6850128-7.0945721,7.1836624-7.0945721
				c1.6754532,0,4.1294632,0.2502975,6.302887,1.4423122c0.1381302,0.0754147,0.2882233,0.0805435,0.401619,0.0119076
				c0.1005707-0.0596581,0.1560135-0.1637096,0.1560135-0.2932854v-3.1310196c0-0.2621441-0.2566452-0.3926353-0.3351135-0.426281
				c-2.0719376-0.9626637-4.7288589-1.3050442-6.5254059-1.3050442c-3.3637238,0-6.1886368,1.0146885-8.1684875,2.9348831
				c-1.9722214,1.9120731-3.0149994,4.6303635-3.0149994,7.8610992c0,6.5944633,4.3903275,10.8556404,11.1834869,10.8556404
				c1.6115265,0,4.0723114-0.2212334,6.6456375-1.2759781c0.166275-0.0707741,0.2745438-0.2387581,0.2745438-0.426342
				L113.965683,37.85532C113.965683,37.726963,113.9110947,37.6225471,113.8130875,37.5594673z M252.7245178,42.7158928
				c6.301178,0,9.3647766-3.3560371,9.3647766-10.2596016V22.0503807c0-0.2805252-0.2284851-0.5085964-0.5090027-0.5085964
				h-2.981781c-0.2805481,0-0.5090332,0.2280712-0.5090332,0.5085964v10.4059105
				c0,4.613266-1.7547913,6.8558121-5.3649597,6.8558121c-3.629776,0-5.3939667-2.2425461-5.3939667-6.8558121V22.0503807
				c0-0.2805252-0.2284851-0.5085964-0.5098724-0.5085964h-2.981781c-0.2805176,0-0.5090179,0.2280712-0.5090179,0.5085964
				v10.4059105C243.3298798,39.3598557,246.4028931,42.7158928,252.7245178,42.7158928z M132.3550568,70.8328323
				c-0.8322296-0.0337067-1.2201538-0.8654556-1.7112885-1.9180603c-0.4195099-0.8995819-0.8953094-1.9189148-1.7710266-2.7259827
				l-0.0852356-0.07798l0.0980682-0.0605774c1.8843536-1.1668549,2.8811493-3.0691566,2.8811493-5.5013695
				c0-4.1673813-2.9860535-6.8600883-7.6057358-6.8600883h-9.0936661c-0.164566,0-0.3606949,0.0622864-0.3606949,0.359417v19.976963
				c0,0.2187271,0.1415405,0.3602753,0.3606949,0.3602753h3.2793427c0.2975616,0,0.3607025-0.1957092,0.3607025-0.3602753
				v-6.6170578h4.7083435c2.1734848,0,2.8931122,1.5761642,3.655365,3.2444153
				c0.8791275,1.9231262,1.7880554,3.9119568,4.9915009,3.9119568c0.4723816,0,0.8074951-0.0579529,0.8074951-0.8070145v-2.3857422
				C132.8700714,70.9598389,132.7737122,70.8592682,132.3550568,70.8328323z M124.3101654,63.7066879h-5.6027985v-6.3165054
				h5.6027985c2.1964417,0,3.4558716,1.1515312,3.4558716,3.15868
				C127.766037,62.555645,126.5066071,63.7066879,124.3101654,63.7066879z M111.9355164,53.6887741h-15.206398
				c-0.2805252,0-0.5090256,0.2281342-0.5090256,0.5086555v19.6794014c0,0.2805252,0.2285004,0.5085983,0.5090256,0.5085983
				h2.981781c0.2805176,0,0.5090179-0.2280731,0.5090179-0.5085983v-8.436676h9.628273
				c0.2813797,0,0.5098724-0.2280731,0.5098724-0.5085983v-2.3857422c0-0.2805252-0.2284927-0.5085945-0.5098724-0.5085945
				h-9.628273v-4.6470375h11.7155991c0.2805176,0,0.5090179-0.2284966,0.5090179-0.509449v-2.6833038
				C112.4445343,53.9169083,112.2160339,53.6887741,111.9355164,53.6887741z M160.4462891,42.2384377h2.981781
				c0.2813873,0,0.5098724-0.2281303,0.5098724-0.5086555V22.0503807c0-0.2805252-0.2284851-0.5085964-0.5098724-0.5085964
				h-2.981781c-0.2805176,0-0.5090179,0.2280712-0.5090179,0.5085964v19.6794014
				C159.9372711,42.0103073,160.1657715,42.2384377,160.4462891,42.2384377z M146.7405243,42.3216057
				c6.4128571,0,10.5567932-4.2611771,10.5567932-10.8556385c0-6.5582542-4.1439362-10.7959824-10.5567932-10.7959824
				c-6.4316101,0-10.5875092,4.2377281-10.5875092,10.7959824
				C136.1530151,38.0604286,140.3089142,42.3216057,146.7405243,42.3216057z M146.7405243,24.3713932
				c3.9836426,0,6.5569763,2.78479,6.5569763,7.094574c0,4.3459911-2.5733337,7.1542301-6.5569763,7.1542301
				c-4.0023956,0-6.5876923-2.808239-6.5876923-7.1542301C140.152832,27.1561832,142.7381287,24.3713932,146.7405243,24.3713932z
				 M188.0903015,34.0761147h5.9637909c0.1732483,0,0.3141785-0.140995,0.3141785-0.3142319V31.136713
				c0-0.1732368-0.1409302-0.3141708-0.3141785-0.3141708h-5.9637909c-0.1733093,0-0.313446,0.140934-0.313446,0.3141708v2.6251698
				C187.7768555,33.9351196,187.9169922,34.0761147,188.0903015,34.0761147z M230.1759338,42.7158928
				c6.4128723,0,10.5568085-4.2611771,10.5568085-10.8556404c0-6.5582542-4.1439362-10.7959824-10.5568085-10.7959824
				c-6.4316101,0-10.5875092,4.2377281-10.5875092,10.7959824
				C219.5884247,38.4547157,223.7443237,42.7158928,230.1759338,42.7158928z M230.1759338,24.7656803
				c3.9836426,0,6.5569763,2.7847881,6.5569763,7.0945721c0,4.345993-2.5733337,7.1542282-6.5569763,7.1542282
				c-4.0023804,0-6.587677-2.8082352-6.587677-7.1542282C223.5882568,27.5504684,226.1735535,24.7656803,230.1759338,24.7656803z
				 M302.1390381,25.2431946c0.2805176,0,0.5090942-0.2284985,0.5090942-0.5094509v-2.683363
				c0-0.2805252-0.2285767-0.5085964-0.5090942-0.5085964h-15.2063293c-0.2805481,0-0.5090332,0.2280712-0.5090332,0.5085964
				v19.6794014c0,0.2805252,0.2284851,0.5086555,0.5090332,0.5086555h15.2063293
				c0.2805176,0,0.5090942-0.2281303,0.5090942-0.5086555v-2.6841583c0-0.2805252-0.2285767-0.5085945-0.5090942-0.5085945
				h-11.7155457v-5.243866h9.6282654c0.2814026,0,0.5098877-0.2280731,0.5098877-0.5085983v-2.3857403
				c0-0.2805252-0.2284851-0.5086575-0.5098877-0.5086575h-9.6282654v-4.6469727H302.1390381z M231.4480133,53.6887741h-2.981781
				c-0.2805328,0-0.5090332,0.2281342-0.5090332,0.5086555v19.6794014c0,0.2805252,0.2285004,0.5085983,0.5090332,0.5085983
				h2.981781c0.2813721,0,0.5098724-0.2280731,0.5098724-0.5085983V54.1974297
				C231.9578857,53.9169083,231.7293854,53.6887741,231.4480133,53.6887741z M244.3769226,62.0065041l-0.5192719-0.0826797
				c-2.5451813-0.4033241-4.7433319-0.7512016-4.7433319-2.4185944c0-1.5991821,1.8152924-2.5924988,4.738205-2.5924988
				c2.8044434,0,5.2745819,0.6232719,7.142746,1.8025246c0.2490082,0.157299,0.4229279,0.2110367,0.5107269,0.1594353
				c0.1066284-0.0584373,0.1603546-0.2775307,0.1603546-0.6518478v-2.7131615c0-0.4860649-0.1125946-0.6284637-0.4289093-0.7866173
				c-1.9466248-0.9891052-4.4994965-1.5117455-7.3849182-1.5117455c-5.5534058,0-8.7389526,2.2394943-8.7389526,6.1446724
				c0,4.7992058,3.9631958,5.7806129,7.6782837,6.3237724l0.6727295,0.0882339
				c3.0968781,0.4011841,5.5431366,0.7184143,5.5431366,2.7413177c0,1.7104416-1.9892578,2.6522141-5.6028595,2.6522141
				c-2.6568604,0-5.4407959-0.7482071-7.2629242-1.9526138c-0.2464447-0.1551666-0.4195557-0.2097549-0.5099335-0.1585846
				c-0.1065521,0.0584412-0.1602936,0.2775345-0.1602936,0.6518555v2.8026733c0,0.4852142,0.1125336,0.6280365,0.4280548,0.7861938
				c2.0003052,0.9843979,4.8064728,1.5718918,7.5050964,1.5718918c6.1033936,0,9.6035461-2.2612991,9.6035461-6.2043915
				C253.0084076,63.6175957,248.7442322,62.6080399,244.3769226,62.0065041z M217.3518066,53.9914665
				c-0.078476-0.2097549-0.2856598-0.3026924-0.4553528-0.3026924h-5.8142548c-0.1654205,0-0.3777466,0.0942192-0.4544983,0.3010406
				l-7.692688,19.5604553c-0.0758972,0.2007751-0.0528717,0.4109497,0.0622253,0.5767975
				c0.1133881,0.1641388,0.3001251,0.2583618,0.5115814,0.2583618h3.1608276c0.164566,0,0.3768768-0.094223,0.454483-0.3014069
				l1.7812195-4.5587387h10.1679535l0.0213623,0.0553818l1.7589874,4.5020752
				c0.078476,0.2097473,0.2856598,0.3026886,0.4553528,0.3026886h3.1608124c0.2242279,0,0.4246368-0.0997772,0.5371857-0.267334
				c0.1082611-0.1620026,0.121933-0.363205,0.0374908-0.5661163L217.3518066,53.9914665z M210.3889465,65.8238754
				l0.0451813-0.1189575l3.5701294-9.2744026l0.0809631,0.2106056l3.5650024,9.1827545H210.3889465z M282.9844666,30.8144817
				h-8.6766663c-0.2805176,0-0.5090027,0.2284985-0.5090027,0.5094509v2.2356491c0,0.2809525,0.2284851,0.50951,0.5090027,0.50951
				h5.1858826v4.5553169l-0.049469,0.0234489c-0.9472656,0.4468002-2.1887512,0.6642456-3.794342,0.6642456
				c-4.3638916,0-7.1836853-2.9250488-7.1836853-7.4518509c0-4.4423523,2.6850891-7.0945721,7.1836853-7.0945721
				c1.6755066,0,4.1294556,0.2502975,6.302887,1.4423122c0.1372681,0.0754147,0.288208,0.0805435,0.4016113,0.0119076
				c0.1006165-0.0596581,0.1560669-0.1637096,0.1560669-0.2932854v-3.1310196c0-0.1641369-0.1032104-0.2928581-0.3445129-0.4305553
				c-2.3132629-1.2001381-4.5770569-1.3007698-6.5160522-1.3007698c-3.363739,0-6.1885986,1.0146885-8.1685181,2.9348831
				c-1.9721375,1.9120731-3.0149841,4.6303635-3.0149841,7.8610992c0,6.5944633,4.3903809,10.8556404,11.1835022,10.8556404
				c1.4265442,0,4.3068542-0.2003479,7.5699463-1.5441666c0.1636963-0.0703468,0.2745361-0.2416916,0.2745361-0.4259186v-9.421875
				C283.4943542,31.0429802,283.2658386,30.8144817,282.9844666,30.8144817z M271.5819397,53.6887741h-15.2063904
				c-0.2805176,0-0.5090179,0.2281342-0.5090179,0.5086555v19.6794014c0,0.2805252,0.2285004,0.5085983,0.5090179,0.5085983
				h15.2063904c0.2814026,0,0.5098877-0.2280731,0.5098877-0.5085983v-2.6842194
				c0-0.2805252-0.2284851-0.5085907-0.5098877-0.5085907H259.867218v-5.243866h9.6282654
				c0.2805176,0,0.5090332-0.2280731,0.5090332-0.5085983v-2.3857422c0-0.2805252-0.2285156-0.5085945-0.5090332-0.5085945
				h-9.6282654v-4.6470375h11.7147217c0.2814026,0,0.5098877-0.2284966,0.5098877-0.509449v-2.6833038
				C272.0918274,53.9169083,271.8633423,53.6887741,271.5819397,53.6887741z M200.4375305,69.7934113
				c-0.1142578-0.0741882-0.2677002-0.0784073-0.410965-0.014473c-2.1469727,0.975853-4.2667236,1.4704056-6.301178,1.4704056
				c-4.4338531,0-7.1879272-2.7430267-7.1879272-7.1585083c0-4.4449158,2.6867218-7.0984192,7.1879272-7.0984192
				c1.6771698,0,4.1328278,0.2503014,6.3071747,1.4427414c0.1381226,0.0754128,0.288147,0.0805435,0.4015503,0.0119095
				c0.1006317-0.0596581,0.1560669-0.1637115,0.1560669-0.2932892v-3.1327248c0-0.2634277-0.2566376-0.3930664-0.3351135-0.426712
				c-2.0727844-0.963089-4.7314148-1.3058357-6.5296783-1.3058357c-3.3654327,0-6.1920471,1.01548-8.1736145,2.9365311
				c-1.9730682,1.9133568-3.0167084,4.633358-3.0167084,7.865799c0,6.5983124,4.3928986,10.8620529,11.1903229,10.8620529
				c1.6115265,0,4.0740204-0.2212906,6.6490631-1.2760391c0.1637115-0.070343,0.2745361-0.241684,0.2745361-0.4262848
				l-0.0588074-3.1633759C200.5901794,69.960968,200.5355988,69.8565521,200.4375305,69.7934113z M203.2349548,41.8781662
				v-6.6170578h4.7083435c2.1734924,0,2.8931122,1.5761032,3.655365,3.2443504
				c0.8791351,1.9231873,1.7880554,3.9120178,4.9915009,3.9120178c0.4723816,0,0.8074951-0.0580101,0.8074951-0.8070717v-2.3857422
				c0-0.4118118-0.0963593-0.5124435-0.5149994-0.5388832c-0.8322449-0.0336456-1.2201691-0.8654518-1.7113037-1.9180565
				c-0.4195099-0.8995247-0.8953094-1.9189148-1.7710114-2.7259254l-0.0852509-0.0780411l0.0980682-0.0605125
				c1.8843536-1.1668587,2.8811493-3.0691605,2.8811493-5.5013695c0-4.1673851-2.9860535-6.8600903-7.6057281-6.8600903h-9.0936737
				c-0.164566,0-0.3606873,0.0622234-0.3606873,0.3594189v19.976963c0,0.2187271,0.1415405,0.3602715,0.3606873,0.3602715h3.2793427
				C203.171814,42.2384377,203.2349548,42.0427322,203.2349548,41.8781662z M203.2349548,25.2431946h5.6027985
				c2.1964417,0,3.4558716,1.1515293,3.4558716,3.15868c0,2.0067196-1.2594299,3.1578236-3.4558716,3.1578236h-5.6027985V25.2431946
				z M149.6043854,53.9914665c-0.0784607-0.2097549-0.2856445-0.3026924-0.456131-0.3026924h-5.8143311
				c-0.164566,0-0.3768768,0.0942192-0.454483,0.3014679l-7.692688,19.5600281
				c-0.0759125,0.2003479-0.052887,0.4105225,0.0622253,0.5763702c0.1133881,0.164566,0.3001251,0.2587891,0.5115814,0.2587891
				h3.1608124c0.1705475,0,0.3777466-0.0929413,0.4553528-0.3014069l1.7812195-4.5587387h10.1671448l0.0213165,0.0553818
				l1.7590485,4.5020752c0.0783997,0.2097473,0.2855988,0.3026886,0.4561462,0.3026886h3.1599579
				c0.2242889,0,0.4254913-0.0997772,0.5380249-0.2677002c0.1083221-0.1616364,0.1219482-0.3628387,0.0375519-0.5657501
				L149.6043854,53.9914665z M142.6406708,65.8238754l0.0452576-0.1189575l3.5700531-9.2744026l0.0810394,0.2106056
				l3.5657806,9.1827545H142.6406708z M178.8472748,53.6887741h-2.98172c-0.2805176,0-0.509079,0.2281342-0.509079,0.5086555
				v14.1145287l-0.1551666-0.1948547l-11.3600159-14.2223625c-0.1185303-0.1419716-0.2634888-0.2059669-0.4689789-0.2059669
				h-3.2494812c-0.2805176,0-0.5090179,0.2281342-0.5090179,0.5086555v19.6794014
				c0,0.2805252,0.2285004,0.5085983,0.5090179,0.5085983h2.981781c0.2805328,0,0.5090332-0.2280731,0.5090332-0.5085983V59.8535347
				l11.5450439,14.3255577c0.1347046,0.1347122,0.2949982,0.206337,0.4689636,0.206337h3.2196198
				c0.2813721,0,0.5099335-0.2280731,0.5099335-0.5085983V54.1974297
				C179.3572083,53.9169083,179.1286469,53.6887741,178.8472748,53.6887741z M134.3661804,38.6857796
				c-0.8321686-0.0336456-1.2201691-0.8654518-1.7113037-1.9180565c-0.4194946-0.8995247-0.8952484-1.9189148-1.7709503-2.7259254
				l-0.0852509-0.0780411l0.0980682-0.0605125c1.8843536-1.1668587,2.8810883-3.0691605,2.8810883-5.5013695
				c0-4.1673851-2.9859924-6.8600903-7.6057281-6.8600903h-9.0935974c-0.164566,0-0.3607025,0.0622234-0.3607025,0.3594189
				v19.976963c0,0.2187271,0.1415405,0.3602715,0.3607025,0.3602715h3.279335c0.2975616,0,0.3606415-0.1957054,0.3606415-0.3602715
				v-6.6170578h4.7084045c2.1734238,0,2.8931198,1.5761032,3.6553726,3.2443504
				c0.8790588,1.9231873,1.7880554,3.9120178,4.9914856,3.9120178c0.4723816,0,0.8074493-0.0580101,0.8074493-0.8070717v-2.3857422
				C134.8811951,38.812851,134.7848358,38.7122192,134.3661804,38.6857796z M126.3213425,31.5596981h-5.6028595v-6.3165035
				h5.6028595c2.1964493,0,3.4558182,1.1515293,3.4558182,3.15868
				C129.7771606,30.4085941,128.5177917,31.5596981,126.3213425,31.5596981z M195.172348,76.1470413h-3.7730408
				c-0.2353363,0-0.3410339,0.0443344-0.3887787,0.081398c-0.0836029,0.0644226-0.1893005,0.1709747-0.3172302,0.3172226
				l-2.6551514,3.3411407c-0.0639343,0.0797424-0.0955048,0.155159-0.0955048,0.2314911c0,0.0421906,0,0.1125336,0.169693,0.1125336
				h3.0584717c0.2131805,0,0.3061218-0.0366364,0.3470306-0.0677795c0.0741882-0.0553818,0.1671295-0.1394043,0.2770996-0.249382
				l3.5163879-3.487381c0.0588684-0.0588684,0.0886688-0.1151047,0.0886688-0.1667023
				C195.3999939,76.2258759,195.3999939,76.1470413,195.172348,76.1470413z"/>
		</g>
	</g>
</g>
</svg>
