<?xml version="1.0" standalone="no"?>
<svg xmlns="http://www.w3.org/2000/svg" width="640" height="800" viewBox="0 0 640 800" preserveAspectRatio="xMidYMid meet">
  <g transform="translate(48,543) scale(0.0508,-0.0508)" fill="#E30613" stroke="none">
    <path d="M3085 9708 c-364 -36 -767 -181 -1081 -387 -629 -412 -1032 -1063 -1114 -1796 -6 -57 -10 -974 -10 -2535 0 -2073 2 -2463 14 -2560 48 -382 175 -727 384 -1045 195 -297 419 -521 717 -720 302 -200 607 -324 970 -393 l140 -26 2470 -4 c1809 -2 2499 0 2580 8 431 45 844 204 1195 458 582 423 945 1025 1035 1715 13 103 15 422 15 2572 0 2677 3 2526 -56 2795 -229 1036 -1107 1816 -2163 1920 -131 13 -4967 11 -5096 -2z m3007 -1388 c48 -14 97 -55 114 -97 21 -49 18 -106 -26 -467 -22 -182 -53 -448 -70 -591 -16 -143 -35 -287 -41 -320 -49 -264 -232 -429 -457 -412 -134 10 -245 85 -327 222 -62 103 -67 132 -120 590 -20 171 -49 418 -65 550 -45 371 -45 369 -25 420 19 50 67 93 118 105 50 12 856 12 899 0z m-2361 -611 c35 -17 195 -213 654 -799 360 -460 546 -665 711 -782 367 -261 761 -254 1119 21 178 136 356 341 875 1006 310 397 422 533 462 555 51 28 128 31 178 5 19 -10 166 -149 326 -309 275 -275 293 -294 308 -346 17 -56 14 -104 -9 -150 -23 -45 -142 -147 -555 -476 -692 -551 -888 -719 -992 -848 -30 -38 -36 -51 -26 -59 10 -7 9 -8 -4 -4 -34 11 -137 -176 -170 -311 -27 -109 -29 -274 -4 -377 23 -97 102 -253 180 -356 118 -155 219 -243 1041 -902 307 -246 500 -408 519 -434 37 -53 42 -136 12 -197 -27 -53 -583 -605 -633 -628 -21 -10 -63 -18 -94 -18 -93 0 -101 7 -389 379 -458 591 -664 849 -773 971 -371 413 -768 539 -1168 371 -221 -93 -438 -297 -775 -727 -44 -55 -142 -180 -219 -278 -341 -435 -420 -535 -472 -603 -63 -83 -113 -113 -186 -113 -26 0 -64 7 -85 15 -45 19 -604 572 -632 625 -47 90 -34 170 39 241 26 25 272 225 547 444 812 649 944 770 1064 974 178 306 156 638 -62 933 -117 158 -240 266 -971 852 -520 417 -594 479 -621 525 -25 43 -27 134 -3 178 24 45 574 597 617 618 71 37 123 38 191 4z m-567 -2189 c443 -55 654 -86 698 -101 136 -45 245 -136 301 -248 30 -61 32 -73 32 -171 0 -97 -2 -109 -29 -158 -53 -95 -165 -188 -276 -230 -73 -27 -76 -27 -1147 -163 -284 -37 -309 -35 -369 25 -53 53 -55 74 -52 564 l3 447 24 39 c28 44 87 75 143 76 20 0 323 -36 672 -80z m5689 66 c42 -17 83 -66 97 -114 13 -49 14 -884 0 -933 -13 -47 -63 -96 -112 -111 -46 -14 2 -19 -773 83 -591 77 -639 85 -733 131 -86 40 -182 135 -220 215 -23 50 -27 70 -27 153 0 87 3 101 32 161 61 123 189 218 348 259 41 10 259 42 487 70 227 27 494 61 593 74 213 29 265 31 308 12z m-3049 -2021 c116 -55 227 -204 256 -340 5 -27 37 -264 70 -525 32 -261 68 -540 80 -620 27 -194 26 -242 -5 -295 -47 -81 -37 -80 -565 -80 -464 0 -465 0 -507 23 -77 40 -96 113 -73 272 5 36 41 317 80 625 39 308 77 586 85 619 40 157 150 286 288 337 79 29 212 22 291 -16z"/>
  </g>
  <text x="320" y="740" text-anchor="middle" font-family="Poppins, -apple-system, BlinkMacSystemFont, 'Segoe UI', sans-serif" font-size="120" font-weight="700" letter-spacing="-3">
    <tspan fill="#E30613">Red</tspan><tspan fill="#1F2937">Stock</tspan>
  </text>
</svg>
